<svg width="109" height="18" viewBox="0 0 109 18" fill="none" xmlns="http://www.w3.org/2000/svg">
<g clip-path="url(#clip0_791_1921)">
<path d="M8.302 3.7C10.528 3.7 12.054 5.114 12.054 7.298C12.054 9.482 10.528 10.882 8.302 10.882H3.122V13.5H0.602V3.7H8.302ZM7.602 8.768C8.358 8.768 9.534 8.768 9.534 7.298C9.534 5.814 8.358 5.814 7.602 5.814H3.122V8.768H7.602ZM17.8641 5.114C21.3081 5.114 23.2681 6.22 23.2961 9.342V13.5H20.8881V12.478C19.4321 13.192 17.8221 13.64 15.8761 13.64C13.5661 13.64 12.1241 12.898 12.1241 11.036C12.1241 8.894 14.4761 8.222 17.0941 8.222C18.5081 8.222 19.8101 8.446 20.8881 8.81C20.8881 7.242 18.8721 7.116 17.7521 7.116C16.6741 7.116 15.3581 7.214 13.6641 7.718L12.8101 5.968C14.4901 5.422 16.1421 5.114 17.8641 5.114ZM20.8881 10.938V10.294C20.0481 10.028 18.9141 9.79 17.3881 9.79C15.5961 9.79 14.5181 10.098 14.5181 10.938C14.5181 11.806 15.3161 11.876 16.5621 11.876C17.8641 11.876 19.6561 11.47 20.8881 10.938ZM29.8817 5.114C33.3257 5.114 35.2857 6.22 35.3137 9.342V13.5H32.9057V12.478C31.4497 13.192 29.8397 13.64 27.8937 13.64C25.5837 13.64 24.1417 12.898 24.1417 11.036C24.1417 8.894 26.4937 8.222 29.1117 8.222C30.5257 8.222 31.8277 8.446 32.9057 8.81C32.9057 7.242 30.8897 7.116 29.7697 7.116C28.6917 7.116 27.3757 7.214 25.6817 7.718L24.8277 5.968C26.5077 5.422 28.1597 5.114 29.8817 5.114ZM32.9057 10.938V10.294C32.0657 10.028 30.9317 9.79 29.4057 9.79C27.6137 9.79 26.5357 10.098 26.5357 10.938C26.5357 11.806 27.3337 11.876 28.5797 11.876C29.8817 11.876 31.6737 11.47 32.9057 10.938ZM36.436 2.3H38.83V13.5H36.436V2.3Z" fill="white"/>
<path d="M50.3917 8.026C51.2457 8.642 51.8617 9.538 51.8617 10.602C51.8617 12.212 50.8957 13.5 48.6697 13.5H39.7097V3.7H48.2497C50.4757 3.7 51.1617 4.708 51.1617 6.192C51.1617 6.822 50.8677 7.466 50.3917 8.026ZM43.3497 6.08V7.144H46.7097C47.0737 7.144 47.5217 7.144 47.5217 6.612C47.5217 6.08 47.0737 6.08 46.7097 6.08H43.3497ZM47.4097 10.84C47.7737 10.84 48.2217 10.84 48.2217 10.322C48.2217 9.804 47.7737 9.804 47.4097 9.804H43.3497V10.84H47.4097ZM57.5831 10.98C58.8011 10.98 59.2911 10.896 59.9771 10.35H63.2671C62.8471 12.576 61.0411 13.64 57.5831 13.64C54.2931 13.64 52.0111 12.408 52.0111 9.3C52.0111 6.192 54.2931 4.96 57.7231 4.96C61.1811 4.96 63.4071 6.192 63.4071 9.86H55.4411C55.7211 10.756 56.6591 10.98 57.5831 10.98ZM57.7091 7.34C56.8131 7.34 55.9731 7.424 55.5951 8.18H59.8231C59.4451 7.424 58.6051 7.34 57.7091 7.34ZM71.8974 7.9H68.4674V9.636C68.4674 10.434 68.7754 10.84 69.7554 10.84C70.5114 10.84 70.9314 10.84 71.8974 10.7V13.43C71.0994 13.57 70.1054 13.64 68.9994 13.64C66.3954 13.64 65.1074 12.842 65.1074 11.022V7.9H63.4134V5.1H65.1074V3.7L68.4674 2.86V5.1H71.8974V7.9ZM80.6611 7.9H77.2311V9.636C77.2311 10.434 77.5391 10.84 78.5191 10.84C79.2751 10.84 79.6951 10.84 80.6611 10.7V13.43C79.8631 13.57 78.8691 13.64 77.7631 13.64C75.1591 13.64 73.8711 12.842 73.8711 11.022V7.9H72.1771V5.1H73.8711V3.7L77.2311 2.86V5.1H80.6611V7.9ZM81.0808 2.3H84.4408V4.54H81.0808V2.3ZM81.0808 5.1H84.4408V13.5H81.0808V5.1ZM92.4246 4.96C94.3146 4.96 96.4566 5.548 96.4566 8.586V13.5H93.0966V9.958C93.0966 8.516 92.5786 7.9 91.0666 7.9C90.0726 7.9 89.0226 8.334 88.3646 8.964V13.5H85.0046V5.1H88.3646V6.22C89.3726 5.52 90.6606 4.96 92.4246 4.96ZM104.946 5.1H108.306V12.422C108.306 15.782 105.898 17 103.014 17C100.62 17 98.5622 16.552 97.7642 16.342V13.612C98.7302 13.794 100.578 14.2 102.398 14.2C104.036 14.2 104.918 13.808 104.946 11.68C104.218 12.562 103.028 13.08 101.334 13.08C98.7442 13.08 96.8822 11.848 96.8822 9.02C96.8822 6.192 98.7442 4.96 101.334 4.96C103.028 4.96 104.218 5.478 104.946 6.36V5.1ZM102.594 10.28C104.372 10.28 104.946 9.972 104.946 9.02C104.946 8.068 104.372 7.76 102.594 7.76C100.816 7.76 100.242 8.068 100.242 9.02C100.242 9.972 100.816 10.28 102.594 10.28Z" fill="#5BEF00"/>
</g>
<defs>
<clipPath id="clip0_791_1921">
<rect width="109" height="17" fill="white" transform="translate(0 0.5)"/>
</clipPath>
</defs>
</svg>
